<?xml version="1.0" encoding="UTF-8"?> <svg xmlns="http://www.w3.org/2000/svg" width="760" height="326" viewBox="0 0 760 326" fill="none"><path d="M237.827 197.015V141.855C237.827 136.189 242.421 131.595 248.087 131.595H248.839V197.015H237.827Z" fill="black"></path><path d="M264.802 197.015V131.595H276.388L302.913 179.071V131.595H303.186C308.852 131.595 313.446 136.189 313.446 141.855V197.015H301.859L275.335 149.539V197.015H264.802Z" fill="black"></path><path d="M348.149 198.604C341.318 198.604 335.988 196.516 332.157 192.342C328.327 188.168 326.412 182.623 326.412 175.707H337.424C337.424 179.757 338.318 182.996 340.105 185.426C341.957 187.794 344.638 188.978 348.149 188.978C351.66 188.978 354.341 187.794 356.192 185.426C358.108 182.996 359.065 179.788 359.065 175.8V141.855C359.065 136.189 363.659 131.595 369.325 131.595H370.077V175.8C370.077 182.716 368.13 188.261 364.236 192.435C360.406 196.548 355.043 198.604 348.149 198.604Z" fill="black"></path><path d="M385.033 131.595H423.719C423.719 136.912 419.409 141.221 414.093 141.221H396.045V159.726H423.719V169.352H396.045V187.389H423.719V197.015H385.033V159.726V141.221V131.595Z" fill="black"></path><path d="M664.547 131.595H703.233C703.233 136.912 698.923 141.221 693.607 141.221H675.559V159.726H703.233V169.352H675.559V187.389H703.233V197.015H664.547V159.726V141.221V131.595Z" fill="black"></path><path d="M468.74 198.602C459.187 198.602 451.625 195.425 446.052 189.069C440.48 182.714 437.694 174.459 437.694 164.303C437.694 154.148 440.48 145.893 446.052 139.537C451.625 133.182 459.187 130.005 468.74 130.005C476.757 130.005 483.353 132.248 488.528 136.734C493.702 141.157 496.744 146.921 497.654 154.023H495.192C490.358 154.023 486.503 150.371 483.637 146.479C482.811 145.357 481.854 144.351 480.766 143.463C477.696 140.908 473.715 139.631 468.825 139.631C462.286 139.631 457.169 141.874 453.473 146.36C449.834 150.783 448.014 156.765 448.014 164.303C448.014 171.842 449.834 177.855 453.473 182.341C457.169 186.764 462.286 188.976 468.825 188.976C473.715 188.976 477.696 187.699 480.766 185.144C481.854 184.256 482.811 183.25 483.637 182.128C486.503 178.236 490.358 174.584 495.192 174.584H497.654C496.744 181.686 493.702 187.481 488.528 191.967C483.353 196.39 476.757 198.602 468.74 198.602Z" fill="black"></path><path d="M526.087 197.015V141.689H506.649V141.689C506.649 136.114 511.168 131.595 516.742 131.595H556.634V141.689H537.099V197.015H526.087Z" fill="black"></path><path d="M570.609 197.015V141.855C570.609 136.189 575.202 131.595 580.869 131.595H581.621V197.015H570.609Z" fill="black"></path><path d="M617.808 197.015L595.592 131.595H600.071C604.533 131.595 608.484 134.479 609.843 138.73L623.074 180.099L636.305 138.73C637.664 134.479 641.615 131.595 646.077 131.595H650.556L628.341 197.015H617.808Z" fill="black"></path><path d="M74.2236 119.496C75.0537 118.453 75.9334 117.448 76.8132 116.444C76.8527 116.395 76.9419 116.384 76.9815 116.335C77.0605 116.235 77.1893 116.176 77.2684 116.076L77.3474 115.977C77.9607 115.41 78.6134 114.793 79.3657 114.255C82.0277 112.234 84.7904 110.699 87.7035 109.689C97.0469 106.409 107.448 108.43 115.604 116.13C126.993 126.805 125.973 144.003 116.882 155.433C105.393 172.473 85.6509 196.246 112.986 217.543C117.901 221.372 121.547 224.529 137.029 229.003C126.903 230.868 117.515 230.288 107.065 227.619C99.673 223.446 88.0515 214.513 84.0976 202.447C78.1216 184.151 94.6185 156.798 102.591 146.264C113.538 131.685 95.8255 115.902 82.7856 133.521C75.9692 142.704 64.0444 168.688 68.1884 187.962C70.6114 198.892 73.8411 206.859 86.6466 217.803C84.2719 216.402 81.966 214.813 79.729 213.035C49.9763 185.32 53.4282 142.468 74.2236 119.496Z" fill="black"></path><path d="M175.506 206.981C174.676 208.025 173.796 209.029 172.916 210.033C172.877 210.083 172.787 210.093 172.748 210.143C172.669 210.242 172.54 210.302 172.461 210.402L172.382 210.501C171.769 211.068 171.116 211.685 170.364 212.222C167.701 214.243 164.939 215.779 162.026 216.789C152.682 220.069 142.282 218.048 134.125 210.347C122.737 199.672 123.757 182.475 132.848 171.045C144.336 154.005 164.078 130.232 136.743 108.935C131.828 105.106 128.182 101.949 112.7 97.475C122.826 95.6096 132.214 96.1898 142.664 98.8589C150.056 103.031 161.678 111.965 165.632 124.03C171.608 142.327 155.111 169.679 147.138 180.214C136.192 194.793 153.904 210.576 166.944 192.956C173.76 183.774 185.685 157.789 181.541 138.515C179.118 127.585 175.888 119.618 163.083 108.674C165.457 110.075 167.763 111.665 170 113.443C199.753 141.158 196.301 184.01 175.506 206.981Z" fill="black"></path></svg> 